<!--?xml version="1.0" standalone="no"?-->

<svg version="1.0" xmlns="http://www.w3.org/2000/svg" width="300.000000pt" height="300.000000pt" viewBox="0 0 300.000000 300.000000" preserveAspectRatio="xMidYMid meet">
<g transform="translate(0.000000,300.000000) scale(0.100000,-0.100000)" fill="#090909" stroke="none">
<path d="M1845 2841 c-103 -27 -180 -89 -224 -181 -22 -47 -26 -68 -26 -140 1
-73 5 -93 29 -139 38 -73 104 -135 174 -161 83 -32 196 -25 271 15 115 63 176
174 169 305 -8 125 -74 226 -185 277 -55 25 -158 38 -208 24z" id="node1" class="node"></path>
<path d="M634 2306 c-4 -9 1 -60 11 -114 17 -99 31 -188 60 -372 19 -121 29
-150 49 -150 30 0 30 11 -19 305 -46 278 -60 340 -78 343 -9 2 -20 -4 -23 -12z" id="node2" class="node"></path>
<path d="M2125 2191 c109 -13 175 -114 131 -200 -19 -36 -89 -99 -159 -144
-31 -20 -57 -41 -57 -46 0 -5 8 -26 17 -47 22 -50 26 -311 5 -360 l-13 -31
-100 -6 c-55 -3 -104 -9 -109 -12 -6 -4 -10 -69 -10 -153 l0 -147 288 0 c320
1 318 0 395 73 76 73 94 191 62 407 -34 229 -122 426 -261 583 -61 69 -107 92
-181 91 l-58 -2 50 -6z" id="node3" class="node"></path>
<path d="M2084 2161 c-11 -5 -49 -31 -85 -57 -165 -125 -358 -186 -641 -203
-83 -4 -132 -12 -143 -21 -25 -21 -45 -66 -45 -102 0 -36 33 -98 52 -98 8 0 9
-3 1 -11 -7 -7 -86 -9 -232 -7 -203 3 -222 2 -227 -14 -3 -10 -2 -22 1 -28 4
-6 122 -10 326 -10 305 0 319 1 319 19 0 30 20 38 107 44 237 18 576 161 692
292 44 51 44 111 -1 160 -35 38 -85 52 -124 36z" id="node4" class="node"></path>
<path d="M2653 1883 c-17 -6 -19 -493 -3 -509 7 -7 9 -74 8 -180 l-3 -169
-370 -2 c-203 -2 -376 -5 -383 -8 -7 -3 -12 -15 -10 -27 3 -23 4 -23 191 -26
l187 -2 -2 -237 -3 -236 -60 -18 c-33 -10 -104 -30 -157 -46 l-98 -28 0 -45
c0 -25 0 -53 -1 -63 0 -30 22 -48 55 -45 38 4 58 46 38 79 -16 26 -9 36 30 42
54 9 219 46 228 52 8 5 74 -8 224 -45 84 -21 97 -27 80 -38 -36 -24 -14 -92
31 -92 41 0 54 23 52 92 l-2 62 -164 48 c-91 26 -168 51 -173 56 -5 5 -7 109
-6 233 l3 224 195 5 c191 5 195 5 198 27 2 14 -4 26 -17 33 -20 10 -21 19 -21
173 0 128 3 167 15 183 12 15 14 63 15 256 0 225 -1 238 -19 248 -21 11 -38
12 -58 3z" id="node5" class="node"></path>
<path d="M287 1573 c-4 -3 -7 -24 -7 -45 0 -40 1 -41 60 -39 19 1 41 -2 47 -7
10 -6 13 -145 15 -618 l3 -609 30 0 30 0 5 550 5 550 625 0 625 0 5 -550 5
-550 30 0 30 0 3 612 2 613 26 6 c14 4 28 4 31 1 3 -4 14 -2 25 4 15 8 18 19
16 47 l-3 37 -801 3 c-440 1 -804 -1 -807 -5z" id="node6" class="node"></path>
<path d="M1615 1291 c-70 -33 -86 -49 -117 -116 -22 -48 -23 -60 -22 -310 0
-245 12 -407 35 -481 20 -64 97 -100 162 -75 l27 11 0 500 c0 393 -3 500 -12
500 -7 0 -40 -13 -73 -29z" id="node7" class="node"></path>
</g>
<g transform="translate(0.000000,300.000000) scale(0.100000,-0.100000)" fill="#A0A0A0" stroke="none">

</g>
</svg>